<mxfile host="app.diagrams.net" modified="2022-03-17T12:26:56.642Z" agent="5.0 (Windows NT 10.0; Win64; x64) AppleWebKit/537.36 (KHTML, like Gecko) Chrome/99.0.4844.74 Safari/537.36" etag="R126adTWdSp3tVYyNtVY" version="17.1.3" type="github">
  <diagram id="C5RBs43oDa-KdzZeNtuy" name="Page-1">
    <mxGraphModel dx="1038" dy="2885" grid="1" gridSize="10" guides="1" tooltips="1" connect="1" arrows="1" fold="1" page="1" pageScale="1" pageWidth="827" pageHeight="1169" math="0" shadow="0">
      <root>
        <mxCell id="WIyWlLk6GJQsqaUBKTNV-0" />
        <mxCell id="WIyWlLk6GJQsqaUBKTNV-1" parent="WIyWlLk6GJQsqaUBKTNV-0" />
        <mxCell id="WIyWlLk6GJQsqaUBKTNV-2" value="" style="rounded=0;html=1;jettySize=auto;orthogonalLoop=1;fontSize=11;endArrow=block;endFill=0;endSize=8;strokeWidth=1;shadow=0;labelBackgroundColor=none;edgeStyle=orthogonalEdgeStyle;" parent="WIyWlLk6GJQsqaUBKTNV-1" source="WIyWlLk6GJQsqaUBKTNV-3" edge="1">
          <mxGeometry relative="1" as="geometry">
            <mxPoint x="220" y="170" as="targetPoint" />
          </mxGeometry>
        </mxCell>
        <mxCell id="WIyWlLk6GJQsqaUBKTNV-3" value="Lamp doesn&#39;t work" style="rounded=1;whiteSpace=wrap;html=1;fontSize=12;glass=0;strokeWidth=1;shadow=0;" parent="WIyWlLk6GJQsqaUBKTNV-1" vertex="1">
          <mxGeometry x="160" y="80" width="120" height="40" as="geometry" />
        </mxCell>
        <mxCell id="WIyWlLk6GJQsqaUBKTNV-4" value="Yes" style="rounded=0;html=1;jettySize=auto;orthogonalLoop=1;fontSize=11;endArrow=block;endFill=0;endSize=8;strokeWidth=1;shadow=0;labelBackgroundColor=none;edgeStyle=orthogonalEdgeStyle;" parent="WIyWlLk6GJQsqaUBKTNV-1" edge="1">
          <mxGeometry y="20" relative="1" as="geometry">
            <mxPoint as="offset" />
            <mxPoint x="220" y="250" as="sourcePoint" />
            <mxPoint x="220" y="290" as="targetPoint" />
          </mxGeometry>
        </mxCell>
        <mxCell id="WIyWlLk6GJQsqaUBKTNV-11" value="Repair Lamp" style="rounded=1;whiteSpace=wrap;html=1;fontSize=12;glass=0;strokeWidth=1;shadow=0;" parent="WIyWlLk6GJQsqaUBKTNV-1" vertex="1">
          <mxGeometry x="160" y="400" width="120" height="40" as="geometry" />
        </mxCell>
        <mxCell id="BGPMG8W0dTxWUfh2eH9M-2" value="" style="edgeStyle=orthogonalEdgeStyle;rounded=0;orthogonalLoop=1;jettySize=auto;html=1;" edge="1" parent="WIyWlLk6GJQsqaUBKTNV-1" source="BGPMG8W0dTxWUfh2eH9M-0" target="BGPMG8W0dTxWUfh2eH9M-1">
          <mxGeometry relative="1" as="geometry" />
        </mxCell>
        <mxCell id="BGPMG8W0dTxWUfh2eH9M-0" value="" style="rounded=1;whiteSpace=wrap;html=1;" vertex="1" parent="WIyWlLk6GJQsqaUBKTNV-1">
          <mxGeometry x="160" y="170" width="120" height="60" as="geometry" />
        </mxCell>
        <mxCell id="BGPMG8W0dTxWUfh2eH9M-1" value="" style="rounded=1;whiteSpace=wrap;html=1;" vertex="1" parent="WIyWlLk6GJQsqaUBKTNV-1">
          <mxGeometry x="160" y="290" width="120" height="60" as="geometry" />
        </mxCell>
        <mxCell id="BGPMG8W0dTxWUfh2eH9M-5" value="" style="endArrow=classic;html=1;rounded=0;exitX=0.5;exitY=1;exitDx=0;exitDy=0;" edge="1" parent="WIyWlLk6GJQsqaUBKTNV-1" source="BGPMG8W0dTxWUfh2eH9M-1" target="WIyWlLk6GJQsqaUBKTNV-11">
          <mxGeometry width="50" height="50" relative="1" as="geometry">
            <mxPoint x="390" y="310" as="sourcePoint" />
            <mxPoint x="440" y="260" as="targetPoint" />
          </mxGeometry>
        </mxCell>
        <mxCell id="BGPMG8W0dTxWUfh2eH9M-6" value="&lt;font style=&quot;font-size: 14px&quot;&gt;Import necessary libraries&lt;/font&gt;" style="rounded=1;whiteSpace=wrap;html=1;" vertex="1" parent="WIyWlLk6GJQsqaUBKTNV-1">
          <mxGeometry x="320" y="-1680" width="120" height="60" as="geometry" />
        </mxCell>
        <mxCell id="BGPMG8W0dTxWUfh2eH9M-7" value="&lt;font style=&quot;font-size: 14px&quot;&gt;Extracting images from directory&lt;/font&gt;" style="rounded=1;whiteSpace=wrap;html=1;" vertex="1" parent="WIyWlLk6GJQsqaUBKTNV-1">
          <mxGeometry x="320" y="-1560" width="120" height="60" as="geometry" />
        </mxCell>
        <mxCell id="BGPMG8W0dTxWUfh2eH9M-8" value="&lt;font style=&quot;font-size: 14px&quot;&gt;Putting label in data&lt;/font&gt;" style="rounded=1;whiteSpace=wrap;html=1;" vertex="1" parent="WIyWlLk6GJQsqaUBKTNV-1">
          <mxGeometry x="320" y="-1440" width="120" height="60" as="geometry" />
        </mxCell>
        <mxCell id="BGPMG8W0dTxWUfh2eH9M-9" value="&lt;font style=&quot;font-size: 14px&quot;&gt;Splitting train test&lt;/font&gt;" style="rounded=1;whiteSpace=wrap;html=1;" vertex="1" parent="WIyWlLk6GJQsqaUBKTNV-1">
          <mxGeometry x="320" y="-1330" width="120" height="60" as="geometry" />
        </mxCell>
        <mxCell id="BGPMG8W0dTxWUfh2eH9M-10" value="&lt;font style=&quot;font-size: 14px&quot;&gt;Creating Model&lt;/font&gt;" style="rounded=1;whiteSpace=wrap;html=1;" vertex="1" parent="WIyWlLk6GJQsqaUBKTNV-1">
          <mxGeometry x="320" y="-1220" width="120" height="60" as="geometry" />
        </mxCell>
        <mxCell id="BGPMG8W0dTxWUfh2eH9M-11" value="&lt;b&gt;&lt;font style=&quot;font-size: 17px&quot;&gt;Human Emotion Detection by using CNN&lt;/font&gt;&lt;/b&gt;" style="rounded=0;whiteSpace=wrap;html=1;" vertex="1" parent="WIyWlLk6GJQsqaUBKTNV-1">
          <mxGeometry x="240" y="-1783" width="280" height="60" as="geometry" />
        </mxCell>
        <mxCell id="BGPMG8W0dTxWUfh2eH9M-12" value="Model Summary" style="rounded=1;whiteSpace=wrap;html=1;fontSize=14;" vertex="1" parent="WIyWlLk6GJQsqaUBKTNV-1">
          <mxGeometry x="320" y="-1120" width="120" height="60" as="geometry" />
        </mxCell>
        <mxCell id="BGPMG8W0dTxWUfh2eH9M-13" value="Model Visualization" style="rounded=1;whiteSpace=wrap;html=1;fontSize=14;" vertex="1" parent="WIyWlLk6GJQsqaUBKTNV-1">
          <mxGeometry x="320" y="-1010" width="120" height="60" as="geometry" />
        </mxCell>
        <mxCell id="BGPMG8W0dTxWUfh2eH9M-14" value="Conduct k-Fold Cross-Validation" style="rounded=1;whiteSpace=wrap;html=1;fontSize=14;" vertex="1" parent="WIyWlLk6GJQsqaUBKTNV-1">
          <mxGeometry x="320" y="-900" width="120" height="60" as="geometry" />
        </mxCell>
        <mxCell id="BGPMG8W0dTxWUfh2eH9M-15" value="Training Model" style="rounded=1;whiteSpace=wrap;html=1;fontSize=14;" vertex="1" parent="WIyWlLk6GJQsqaUBKTNV-1">
          <mxGeometry x="320" y="-800" width="120" height="60" as="geometry" />
        </mxCell>
        <mxCell id="BGPMG8W0dTxWUfh2eH9M-16" value="Taking model with lowest Loss" style="rounded=1;whiteSpace=wrap;html=1;fontSize=14;" vertex="1" parent="WIyWlLk6GJQsqaUBKTNV-1">
          <mxGeometry x="320" y="-690" width="120" height="60" as="geometry" />
        </mxCell>
        <mxCell id="BGPMG8W0dTxWUfh2eH9M-17" value="Evaluating model" style="rounded=1;whiteSpace=wrap;html=1;fontSize=14;" vertex="1" parent="WIyWlLk6GJQsqaUBKTNV-1">
          <mxGeometry x="320" y="-584" width="120" height="60" as="geometry" />
        </mxCell>
        <mxCell id="BGPMG8W0dTxWUfh2eH9M-29" style="edgeStyle=orthogonalEdgeStyle;rounded=0;orthogonalLoop=1;jettySize=auto;html=1;fontSize=14;" edge="1" parent="WIyWlLk6GJQsqaUBKTNV-1" source="BGPMG8W0dTxWUfh2eH9M-18" target="BGPMG8W0dTxWUfh2eH9M-19">
          <mxGeometry relative="1" as="geometry" />
        </mxCell>
        <mxCell id="BGPMG8W0dTxWUfh2eH9M-18" value="Visualizing Train,Test---&gt;Accuracy,Loss" style="rounded=1;whiteSpace=wrap;html=1;fontSize=14;" vertex="1" parent="WIyWlLk6GJQsqaUBKTNV-1">
          <mxGeometry x="250" y="-480" width="260" height="60" as="geometry" />
        </mxCell>
        <mxCell id="BGPMG8W0dTxWUfh2eH9M-19" value="Confusion Matrix" style="rounded=1;whiteSpace=wrap;html=1;fontSize=14;" vertex="1" parent="WIyWlLk6GJQsqaUBKTNV-1">
          <mxGeometry x="320" y="-380" width="120" height="60" as="geometry" />
        </mxCell>
        <mxCell id="BGPMG8W0dTxWUfh2eH9M-20" value="ROC Curve" style="rounded=1;whiteSpace=wrap;html=1;fontSize=14;" vertex="1" parent="WIyWlLk6GJQsqaUBKTNV-1">
          <mxGeometry x="320" y="-280" width="120" height="60" as="geometry" />
        </mxCell>
        <mxCell id="BGPMG8W0dTxWUfh2eH9M-21" value="" style="endArrow=classic;html=1;rounded=0;fontSize=14;exitX=0.5;exitY=1;exitDx=0;exitDy=0;" edge="1" parent="WIyWlLk6GJQsqaUBKTNV-1" source="BGPMG8W0dTxWUfh2eH9M-19">
          <mxGeometry width="50" height="50" relative="1" as="geometry">
            <mxPoint x="390" y="-220" as="sourcePoint" />
            <mxPoint x="380" y="-280" as="targetPoint" />
          </mxGeometry>
        </mxCell>
        <mxCell id="BGPMG8W0dTxWUfh2eH9M-25" value="" style="endArrow=classic;html=1;rounded=0;fontSize=14;entryX=0.5;entryY=0;entryDx=0;entryDy=0;exitX=0.5;exitY=1;exitDx=0;exitDy=0;" edge="1" parent="WIyWlLk6GJQsqaUBKTNV-1" source="BGPMG8W0dTxWUfh2eH9M-17" target="BGPMG8W0dTxWUfh2eH9M-18">
          <mxGeometry width="50" height="50" relative="1" as="geometry">
            <mxPoint x="379.5" y="-514" as="sourcePoint" />
            <mxPoint x="379.5" y="-584" as="targetPoint" />
          </mxGeometry>
        </mxCell>
        <mxCell id="BGPMG8W0dTxWUfh2eH9M-31" value="" style="endArrow=classic;html=1;rounded=0;fontSize=14;exitX=0.5;exitY=1;exitDx=0;exitDy=0;entryX=0.5;entryY=0;entryDx=0;entryDy=0;" edge="1" parent="WIyWlLk6GJQsqaUBKTNV-1" source="BGPMG8W0dTxWUfh2eH9M-6" target="BGPMG8W0dTxWUfh2eH9M-7">
          <mxGeometry width="50" height="50" relative="1" as="geometry">
            <mxPoint x="390" y="-1730" as="sourcePoint" />
            <mxPoint x="440" y="-1780" as="targetPoint" />
          </mxGeometry>
        </mxCell>
        <mxCell id="BGPMG8W0dTxWUfh2eH9M-32" value="" style="endArrow=classic;html=1;rounded=0;fontSize=14;exitX=0.5;exitY=1;exitDx=0;exitDy=0;entryX=0.5;entryY=0;entryDx=0;entryDy=0;" edge="1" parent="WIyWlLk6GJQsqaUBKTNV-1" source="BGPMG8W0dTxWUfh2eH9M-7" target="BGPMG8W0dTxWUfh2eH9M-8">
          <mxGeometry width="50" height="50" relative="1" as="geometry">
            <mxPoint x="390" y="-1470" as="sourcePoint" />
            <mxPoint x="440" y="-1520" as="targetPoint" />
          </mxGeometry>
        </mxCell>
        <mxCell id="BGPMG8W0dTxWUfh2eH9M-33" value="" style="endArrow=classic;html=1;rounded=0;fontSize=14;exitX=0.5;exitY=1;exitDx=0;exitDy=0;entryX=0.5;entryY=0;entryDx=0;entryDy=0;" edge="1" parent="WIyWlLk6GJQsqaUBKTNV-1" source="BGPMG8W0dTxWUfh2eH9M-8" target="BGPMG8W0dTxWUfh2eH9M-9">
          <mxGeometry width="50" height="50" relative="1" as="geometry">
            <mxPoint x="390" y="-1470" as="sourcePoint" />
            <mxPoint x="440" y="-1520" as="targetPoint" />
          </mxGeometry>
        </mxCell>
        <mxCell id="BGPMG8W0dTxWUfh2eH9M-34" value="" style="endArrow=classic;html=1;rounded=0;fontSize=14;exitX=0.5;exitY=1;exitDx=0;exitDy=0;" edge="1" parent="WIyWlLk6GJQsqaUBKTNV-1" source="BGPMG8W0dTxWUfh2eH9M-16" target="BGPMG8W0dTxWUfh2eH9M-17">
          <mxGeometry width="50" height="50" relative="1" as="geometry">
            <mxPoint x="390" y="-350" as="sourcePoint" />
            <mxPoint x="440" y="-400" as="targetPoint" />
          </mxGeometry>
        </mxCell>
        <mxCell id="BGPMG8W0dTxWUfh2eH9M-35" value="" style="endArrow=classic;html=1;rounded=0;fontSize=14;exitX=0.5;exitY=1;exitDx=0;exitDy=0;entryX=0.5;entryY=0;entryDx=0;entryDy=0;" edge="1" parent="WIyWlLk6GJQsqaUBKTNV-1" source="BGPMG8W0dTxWUfh2eH9M-14" target="BGPMG8W0dTxWUfh2eH9M-15">
          <mxGeometry width="50" height="50" relative="1" as="geometry">
            <mxPoint x="390" y="-640" as="sourcePoint" />
            <mxPoint x="440" y="-690" as="targetPoint" />
          </mxGeometry>
        </mxCell>
        <mxCell id="BGPMG8W0dTxWUfh2eH9M-36" style="edgeStyle=orthogonalEdgeStyle;rounded=0;orthogonalLoop=1;jettySize=auto;html=1;exitX=0.5;exitY=1;exitDx=0;exitDy=0;entryX=0.5;entryY=0;entryDx=0;entryDy=0;fontSize=14;" edge="1" parent="WIyWlLk6GJQsqaUBKTNV-1" source="BGPMG8W0dTxWUfh2eH9M-15" target="BGPMG8W0dTxWUfh2eH9M-16">
          <mxGeometry relative="1" as="geometry" />
        </mxCell>
        <mxCell id="BGPMG8W0dTxWUfh2eH9M-37" value="" style="endArrow=classic;html=1;rounded=0;fontSize=14;exitX=0.5;exitY=1;exitDx=0;exitDy=0;entryX=0.5;entryY=0;entryDx=0;entryDy=0;" edge="1" parent="WIyWlLk6GJQsqaUBKTNV-1" source="BGPMG8W0dTxWUfh2eH9M-9" target="BGPMG8W0dTxWUfh2eH9M-10">
          <mxGeometry width="50" height="50" relative="1" as="geometry">
            <mxPoint x="390" y="-1090" as="sourcePoint" />
            <mxPoint x="440" y="-1140" as="targetPoint" />
          </mxGeometry>
        </mxCell>
        <mxCell id="BGPMG8W0dTxWUfh2eH9M-38" value="" style="endArrow=classic;html=1;rounded=0;fontSize=14;exitX=0.5;exitY=1;exitDx=0;exitDy=0;entryX=0.5;entryY=0;entryDx=0;entryDy=0;" edge="1" parent="WIyWlLk6GJQsqaUBKTNV-1" source="BGPMG8W0dTxWUfh2eH9M-10" target="BGPMG8W0dTxWUfh2eH9M-12">
          <mxGeometry width="50" height="50" relative="1" as="geometry">
            <mxPoint x="390" y="-1090" as="sourcePoint" />
            <mxPoint x="440" y="-1140" as="targetPoint" />
          </mxGeometry>
        </mxCell>
        <mxCell id="BGPMG8W0dTxWUfh2eH9M-39" value="" style="endArrow=classic;html=1;rounded=0;fontSize=14;exitX=0.5;exitY=1;exitDx=0;exitDy=0;entryX=0.5;entryY=0;entryDx=0;entryDy=0;" edge="1" parent="WIyWlLk6GJQsqaUBKTNV-1" source="BGPMG8W0dTxWUfh2eH9M-12" target="BGPMG8W0dTxWUfh2eH9M-13">
          <mxGeometry width="50" height="50" relative="1" as="geometry">
            <mxPoint x="390" y="-1090" as="sourcePoint" />
            <mxPoint x="440" y="-1140" as="targetPoint" />
          </mxGeometry>
        </mxCell>
        <mxCell id="BGPMG8W0dTxWUfh2eH9M-40" value="" style="endArrow=classic;html=1;rounded=0;fontSize=14;exitX=0.5;exitY=1;exitDx=0;exitDy=0;" edge="1" parent="WIyWlLk6GJQsqaUBKTNV-1" source="BGPMG8W0dTxWUfh2eH9M-13" target="BGPMG8W0dTxWUfh2eH9M-14">
          <mxGeometry width="50" height="50" relative="1" as="geometry">
            <mxPoint x="390" y="-1090" as="sourcePoint" />
            <mxPoint x="440" y="-1140" as="targetPoint" />
          </mxGeometry>
        </mxCell>
      </root>
    </mxGraphModel>
  </diagram>
</mxfile>
